<svg class="write-page" width="1630px" height="840px" xmlns="http://www.w3.org/2000/svg" xmlns:xlink="http://www.w3.org/1999/xlink">
  <g class="write-content write-v3" width="1630" height="840" xruling="30" yruling="30" marginLeft="30" papercolor="#1B1C1C" rulecolor="#3A00F9FF">
    <g class="ruleline write-std-ruling write-scale-down" fill="none" stroke="#00F9FF" stroke-opacity="0.227" stroke-width="1" shape-rendering="crispEdges" vector-effect="non-scaling-stroke">
      <rect class="pagerect" fill="#1B1C1C" stroke="none" x="0" y="0" width="1630" height="840" />
      <path class="yrule_1" d="M0 30 l1630 0" />
      <path d="M0 60 l1630 0" />
      <path d="M0 90 l1630 0" />
      <path d="M0 120 l1630 0" />
      <path d="M0 150 l1630 0" />
      <path d="M0 180 l1630 0" />
      <path d="M0 210 l1630 0" />
      <path d="M0 240 l1630 0" />
      <path d="M0 270 l1630 0" />
      <path d="M0 300 l1630 0" />
      <path d="M0 330 l1630 0" />
      <path d="M0 360 l1630 0" />
      <path d="M0 390 l1630 0" />
      <path d="M0 420 l1630 0" />
      <path d="M0 450 l1630 0" />
      <path d="M0 480 l1630 0" />
      <path d="M0 510 l1630 0" />
      <path d="M0 540 l1630 0" />
      <path d="M0 570 l1630 0" />
      <path d="M0 600 l1630 0" />
      <path d="M0 630 l1630 0" />
      <path d="M0 660 l1630 0" />
      <path d="M0 690 l1630 0" />
      <path d="M0 720 l1630 0" />
      <path d="M0 750 l1630 0" />
      <path d="M0 780 l1630 0" />
      <path d="M0 810 l1630 0" />
      <path class="xrule_1" d="M30 0 l0 840" />
      <path d="M60 0 l0 840" />
      <path d="M90 0 l0 840" />
      <path d="M120 0 l0 840" />
      <path d="M150 0 l0 840" />
      <path d="M180 0 l0 840" />
      <path d="M210 0 l0 840" />
      <path d="M240 0 l0 840" />
      <path d="M270 0 l0 840" />
      <path d="M300 0 l0 840" />
      <path d="M330 0 l0 840" />
      <path d="M360 0 l0 840" />
      <path d="M390 0 l0 840" />
      <path d="M420 0 l0 840" />
      <path d="M450 0 l0 840" />
      <path d="M480 0 l0 840" />
      <path d="M510 0 l0 840" />
      <path d="M540 0 l0 840" />
      <path d="M570 0 l0 840" />
      <path d="M600 0 l0 840" />
      <path d="M630 0 l0 840" />
      <path d="M660 0 l0 840" />
      <path d="M690 0 l0 840" />
      <path d="M720 0 l0 840" />
      <path d="M750 0 l0 840" />
      <path d="M780 0 l0 840" />
      <path d="M810 0 l0 840" />
      <path d="M840 0 l0 840" />
      <path d="M870 0 l0 840" />
      <path d="M900 0 l0 840" />
      <path d="M930 0 l0 840" />
      <path d="M960 0 l0 840" />
      <path d="M990 0 l0 840" />
      <path d="M1020 0 l0 840" />
      <path d="M1050 0 l0 840" />
      <path d="M1080 0 l0 840" />
      <path d="M1110 0 l0 840" />
      <path d="M1140 0 l0 840" />
      <path d="M1170 0 l0 840" />
      <path d="M1200 0 l0 840" />
      <path d="M1230 0 l0 840" />
      <path d="M1260 0 l0 840" />
      <path d="M1290 0 l0 840" />
      <path d="M1320 0 l0 840" />
      <path d="M1350 0 l0 840" />
      <path d="M1380 0 l0 840" />
      <path d="M1410 0 l0 840" />
      <path d="M1440 0 l0 840" />
      <path d="M1470 0 l0 840" />
      <path d="M1500 0 l0 840" />
      <path d="M1530 0 l0 840" />
      <path d="M1560 0 l0 840" />
      <path d="M1590 0 l0 840" />
      <path d="M1620 0 l0 840" />
      <path class="leftmargin" stroke="#FF0000" d="M30 0 l0 840" />
    </g>
  </g>
</svg>
